<svg width="535" height="233" viewBox="0 0 535 233" fill="none" xmlns="http://www.w3.org/2000/svg">
<path d="M164.051 12.4C161.267 14.0481 158.959 16.3913 157.353 19.2L151.756 28.8C150.901 30.2601 150.42 31.909 150.356 33.6C150.356 36.8 152.155 38.4 155.754 38.4C160.552 38.4 162.951 39.5333 162.951 41.8C162.951 43.8 161.219 45.4 157.753 46.6C155.383 47.4771 152.883 47.9503 150.356 48C147.317 48.1162 144.372 49.0866 141.859 50.8C139.076 52.4481 136.768 54.7913 135.162 57.6L36.9991 227.8C34.9999 231.267 32.8674 233 30.6016 233C29.9884 232.987 29.3894 232.813 28.8636 232.498C28.3377 232.182 27.9031 231.735 27.6027 231.2L1.21274 186C0.335341 184.485 -0.0815232 182.748 0.0131929 181C0.0329725 177.197 1.06831 173.468 3.01205 170.2L95.7768 9.6C97.3641 6.81043 99.6344 4.47045 102.374 2.8C104.846 1.07957 107.762 0.107527 110.771 0L177.946 0C182.744 0 185.143 1.13333 185.143 3.4C185.143 5.4 183.41 7 179.945 8.2C177.575 9.07709 175.074 9.55032 172.548 9.6C169.509 9.71615 166.564 10.6866 164.051 12.4Z" fill="#064420"/>
<path d="M93.7775 163.2C90.0389 163.2 88.1796 161.6 88.1796 158.4C88.2383 156.708 88.7194 155.058 89.5791 153.6L139.56 67.2C141.163 64.389 143.472 62.0452 146.258 60.4C148.771 58.6865 151.715 57.7161 154.754 57.6H202.736C206.335 57.6 208.134 59.2 208.134 62.4C208.07 64.0909 207.59 65.7399 206.735 67.2L156.754 153.6C155.15 156.411 152.842 158.755 150.056 160.4C147.605 162.087 144.731 163.057 141.759 163.2H93.7775Z" fill="#064420"/>
<path d="M365.674 57.6C369.273 57.6 371.072 59.2 371.072 62.4C371.009 64.0909 370.528 65.7399 369.673 67.2L319.692 153.6C318.089 156.411 315.78 158.755 312.994 160.4C310.543 162.087 307.67 163.057 304.697 163.2H256.716C252.977 163.2 251.118 161.6 251.118 158.4C251.177 156.708 251.658 155.058 252.517 153.6L296.9 76.8C297.755 75.3399 298.236 73.6909 298.3 72C298.3 68.8 296.501 67.2 292.902 67.2C289.896 67.3094 286.984 68.2814 284.515 70C281.747 71.706 279.419 74.0387 277.718 76.81L233.345 153.61C231.737 156.418 229.425 158.759 226.637 160.4C224.186 162.087 221.312 163.057 218.34 163.2H170.359C166.62 163.2 164.761 161.6 164.761 158.4C164.819 156.708 165.3 155.058 166.16 153.6L216.141 67.2C217.744 64.389 220.053 62.0452 222.839 60.4C225.352 58.6865 228.296 57.7161 231.335 57.6H365.674Z" fill="#064420"/>
<path d="M420.483 118C417.742 119.659 415.468 121.989 413.876 124.77L402.67 143.9C401.918 145.409 401.502 147.064 401.451 148.75C401.451 151.99 403.25 153.61 406.849 153.61C409.888 153.494 412.832 152.523 415.345 150.81C418.129 149.162 420.437 146.819 422.043 144.01L427.641 134.41C429.247 131.601 431.555 129.258 434.338 127.61C436.851 125.897 439.796 124.926 442.835 124.81H490.817C494.415 124.81 496.215 126.41 496.215 129.61C496.151 131.301 495.67 132.95 494.815 134.41L483.619 153.61C482.016 156.421 479.708 158.765 476.922 160.41C474.471 162.097 471.597 163.067 468.625 163.21H334.276C330.551 163.21 328.685 161.61 328.678 158.41C328.742 156.719 329.223 155.07 330.078 153.61L380.059 67.21C381.665 64.4013 383.973 62.0581 386.756 60.41C389.269 58.6965 392.214 57.7261 395.253 57.61H529.602C533.201 57.61 535 59.21 535 62.41C534.936 64.101 534.455 65.7499 533.6 67.21L511.379 105.61C509.769 108.419 507.458 110.762 504.671 112.41C502.154 114.123 499.207 115.093 496.165 115.21H428.85C425.853 115.327 422.951 116.295 420.483 118ZM430.43 95.89C429.58 97.3737 429.104 99.0414 429.04 100.75C429.04 103.99 430.906 105.61 434.638 105.61C437.648 105.502 440.563 104.53 443.035 102.81C445.807 101.106 448.139 98.7731 449.842 96L460.838 76.8C461.693 75.3399 462.174 73.691 462.238 72C462.238 68.8 460.435 67.2 456.83 67.2C453.808 67.3088 450.88 68.2804 448.393 70C445.621 71.691 443.286 74.01 441.575 76.77L430.43 95.89Z" fill="#064420"/>
</svg>
